<?xml version="1.0" encoding="UTF-8"?>
<svg id="_レイヤー_2" data-name="レイヤー 2" xmlns="http://www.w3.org/2000/svg" xmlns:xlink="http://www.w3.org/1999/xlink" viewBox="0 0 3840 3840">
    <defs>
        <style>
            .cls-1 {
            fill: url(#_スペクトル_中間_-5);
            }

            .cls-1, .cls-2, .cls-3, .cls-4, .cls-5, .cls-6 {
            stroke-width: 0px;
            }

            .cls-2 {
            fill: url(#_スペクトル_中間_-6);
            }

            .cls-3 {
            fill: url(#_スペクトル_中間_-3);
            }

            .cls-4 {
            fill: url(#_スペクトル_中間_);
            }

            .cls-5 {
            fill: url(#_スペクトル_中間_-4);
            }

            .cls-6 {
            fill: url(#_スペクトル_中間_-2);
            }
        </style>
        <linearGradient id="_スペクトル_中間_" data-name="スペクトル (中間) " x1="72.64" y1="1910.79" x2="3806.28" y2="1910.79" gradientUnits="userSpaceOnUse">
            <stop offset="0" stop-color="#7ecbf1"/>
            <stop offset=".2" stop-color="#8f82ba"/>
            <stop offset=".4" stop-color="#ed9ebd"/>
            <stop offset=".6" stop-color="#ef9b76"/>
            <stop offset=".8" stop-color="#fef59a"/>
            <stop offset="1" stop-color="#89c797"/>
        </linearGradient>
        <linearGradient id="_スペクトル_中間_-2" data-name="スペクトル (中間) " x1="698.03" y1="1291.46" x2="3060.4" y2="1291.46" xlink:href="#_スペクトル_中間_"/>
        <linearGradient id="_スペクトル_中間_-3" data-name="スペクトル (中間) " x1="1223.86" y1="1535.5" x2="1666.21" y2="1535.5" xlink:href="#_スペクトル_中間_"/>
        <linearGradient id="_スペクトル_中間_-4" data-name="スペクトル (中間) " x1="2202.09" y1="1544.86" x2="2614.76" y2="1544.86" xlink:href="#_スペクトル_中間_"/>
        <linearGradient id="_スペクトル_中間_-5" data-name="スペクトル (中間) " x1="2163.32" y1="1799.37" x2="2553.87" y2="1799.37" xlink:href="#_スペクトル_中間_"/>
        <linearGradient id="_スペクトル_中間_-6" data-name="スペクトル (中間) " x1="1171.51" y1="1781.57" x2="1536.25" y2="1781.57" xlink:href="#_スペクトル_中間_"/>
    </defs>
    <path class="cls-4" d="M1812.49,3802.6c-61.1,0-114.31-22.4-158.31-44.31-37.36-18.61-79.14-30.88-119.54-42.74-22.96-6.74-46.69-13.71-69.63-21.82-29.44-10.41-58.62-22.64-86.85-34.48-13.81-5.79-28.09-11.78-42.17-17.45-13.7-5.52-27.43-11.61-40.7-17.49-29.6-13.12-60.21-26.69-91.26-34.24-111.31-27.07-209.73-74.69-292.55-141.53-64.82-52.32-131.88-111.4-217.43-191.57-18.08-16.94-36.64-34.08-54.59-50.66-70.57-65.16-143.54-132.55-207.23-206.16-153.42-177.33-306.51-371.65-346.12-624.89-10.28-65.71-14.49-139.48-13.27-232.17,2.36-178.62,7.31-322.72,15.57-453.48,1.6-25.28,2.94-51.17,4.23-76.22,5.58-107.8,11.34-219.26,39.36-323.35,32.33-120.11,88.19-244.64,166.02-370.12,77.78-125.41,175.82-240.6,270.62-352l6.71-7.89c72.57-85.28,169.55-141.34,263.34-195.56,18.42-10.65,37.47-21.66,55.97-32.69,27.74-16.54,55.89-33.48,83.12-49.86,73.01-43.93,148.51-89.36,224.08-131.84,146.46-82.32,309.02-125.72,483.18-128.99,52.83-.99,122.44-2.13,192.44-2.13,151.29,0,274.52,5.31,387.82,16.72,122.68,12.35,242.04,54.28,363.71,99.86,97.76,36.62,188.34,79.24,269.23,126.65,88.72,52.01,169.13,111.74,238.99,177.54,70.77,66.66,126.11,148.19,181.23,232.88,38.07,58.49,72.96,120.24,106.71,179.95,27.05,47.87,55.03,97.38,84.4,144.77,59.39,95.83,123.17,189.09,194.39,292.35,70.05,101.57,87.6,218.65,96.13,330.03,13,169.86,5.49,328.9-22.98,486.2-43.07,238.03-112.99,447.09-213.75,639.15-7.25,13.81-14.23,28-20.99,41.73-23.79,48.3-48.38,98.25-88.73,140.75-13.3,14.01-17.57,38.06-22.09,63.53-2.43,13.7-4.95,27.86-9.05,40.87-20.51,65.04-50.81,118.26-90.06,158.17-42.9,43.62-96.71,71.53-159.92,82.97-87.61,15.85-185.44,23.89-290.78,23.89-9,0-18.21-.06-27.37-.17-137.53-1.72-277.12-11.51-412.11-20.97-18.28-1.28-36.56-2.56-54.84-3.83-80.5-5.56-144.65-13.97-201.87-26.48-75.21-16.44-138.94-46.45-189.41-89.2-52.4-44.38-91.76-103.53-116.99-175.82-3.65-10.46-23.04-25.15-33.46-25.36-87.41-1.7-175.23-1.94-257.12-1.94-20.37,0-40.75.01-61.12.03-20.38.01-40.75.03-61.13.03-8.38,0-16.74,0-25.12,0-6.83,0-13.76-.12-20.45-.24-6.76-.12-13.75-.24-20.57-.24-12.02,0-21.73.39-30.56,1.22-12.9,1.22-24.89,1.83-35.62,1.83-40.17,0-68.04-8.64-87.69-27.2-16.66-15.73-26.6-37.72-36.07-62.91-7.08,2.27-14.03,4.75-20.82,7.18-21.33,7.61-41.49,14.81-62.46,14.81h-.64c-27.1-.19-50.49-9.79-67.66-27.74-22.24-23.27-33.11-58.92-31.43-103.09,2.93-77.11,7.33-155.41,11.59-231.12,3.2-56.97,6.51-115.88,9.17-173.81,3.63-79.11,5.66-158.59,6.04-236.24.19-38.76,7.08-92.98,64.5-116.15,15.1-6.09,30.06-9.18,44.48-9.18,30.13,0,57.28,13.05,80.7,38.78,3.39,3.72,11.85,6.87,18.48,6.87.39,0,.78-.01,1.15-.04,51.08-3.38,103.03-7.4,153.26-11.29,93.25-7.21,189.68-14.67,284.76-18.4,115.92-4.54,235.74-4.54,341.45-4.54h13.42c33.38,0,63.52,0,94.42-.11,133.11-.44,274.84-.87,415.51-.87,93.88,0,178.99.19,260.18.57,48.56.23,82.56,11.23,103.96,33.63,21.3,22.3,30.7,56.55,28.72,104.71-5.41,131.59-12.47,265.29-19.3,394.58l-.29,5.49c-.95,17.94-4.41,33.33-10.29,45.74-9.07,19.16-17.89,39.02-26.42,58.22-23.67,53.31-48.15,108.44-81.55,156.79-17.28,25.02-40.81,46-63.55,66.29-18.54,16.53-37.71,33.63-53.52,52.89-17.38,21.16-57.9,22.69-90.47,23.92l-2.77.11c-113.82,4.37-229.57,7.63-341.5,10.79-49.26,1.39-100.2,2.82-150.29,4.33-1.67.05-3.55.43-5.54.96,16.08,34.3,70.31,71.94,115.54,78.26,201.33,28.13,418.24,41.8,663.12,41.8,44.97,0,92.01-.46,139.8-1.38,22.92-.44,47.28-1.51,70.17-6.31,104.4-21.91,108.69-32.24,122.73-137.1,4.67-34.87,15.9-84.07,42.87-120.46,112.19-151.35,192.84-326.93,261.5-569.3,66.42-234.47,67.79-474.98,59.38-699.96-1.42-38.04-26.5-77.66-50.76-115.96-4.36-6.88-8.87-14-13.08-20.89-38.08-62.21-78.04-124.78-116.68-185.29-59.97-93.91-121.99-191.02-178.54-289.23-91.27-158.52-206.4-340.68-368.29-489.75-144.95-133.46-317.61-198.34-527.85-198.34-10.59,0-21.41.17-32.18.51-15.43.49-31.71.73-48.4.73-60.79,0-122.57-3.24-182.31-6.37-59.53-3.12-121.08-6.34-181.45-6.34-3.99,0-7.98.01-11.98.04-2.34.02-4.69.02-7.03.02-35.51,0-71.75-1.9-106.8-3.73-34.86-1.83-70.92-3.71-106.06-3.71-72.96,0-128.21,8.15-179.18,26.42-63.34,22.71-123.83,58.23-182.34,92.59-19.06,11.19-38.77,22.77-58.31,33.74-62.62,35.17-125.48,74.63-180.94,109.45-39.9,25.05-81.14,49.6-121.03,73.35-97.54,58.07-198.41,118.12-286.93,189.79-85.37,69.12-158.96,170.76-224.98,310.73-65.63,139.15-100.39,293.64-106.27,472.32-2.86,86.9-8.54,175.07-14.02,260.35-4.88,75.77-9.92,154.12-12.96,231.19-3.28,83.22-2.27,168.15-1.29,250.27.29,23.97.58,48.76.77,73.14.73,96.5,49.96,175.41,104.73,254.42,75.96,109.56,149.32,201.77,224.27,281.89,88.64,94.75,185.72,184.83,279.59,271.94,16.05,14.89,32.1,29.79,48.11,44.7,27.52,25.63,58.71,48.66,88.88,70.94,14.34,10.58,29.17,21.53,43.49,32.67,52.93,41.16,114.24,57.64,179.15,75.09,22.41,6.02,45.59,12.25,68.09,19.54,20.51,6.64,39.91,16.53,58.66,26.1,15.02,7.66,30.54,15.58,46.19,21.54,26.99,10.28,54.99,19.56,82.08,28.54,27.94,9.26,56.83,18.84,84.87,29.58,27.47,10.53,54.87,22.37,81.36,33.81,31.16,13.46,63.38,27.39,95.63,39.12,35.81,13.03,73.14,21.61,107.96,24.82,79.34,7.31,161.38,14.86,241.5,14.86,114.44,0,207.44-15.36,292.67-48.34,64.98-25.14,128.27-58.74,189.47-91.24,20.79-11.04,42.29-22.46,63.57-33.39,7.42-3.81,13.85-11.26,20.66-19.14,3.49-4.05,7.11-8.23,11.02-12.09,21.59-21.32,49.82-33.05,79.48-33.05,19.2,0,38.53,5.04,55.9,14.58,21.03,11.54,36.9,28.64,45.91,49.46,9.28,21.44,10.51,45.23,3.54,68.8-5.66,19.16-21.09,39.04-37.52,48.34-113.19,64.09-231.07,115.83-350.35,153.78-121.47,38.64-247.62,64.01-374.94,75.4-71.07,6.36-143.63,7.18-213.8,7.97-29.81.34-60.64.68-90.88,1.45-2.18.05-4.39.08-6.58.08ZM1238.46,2765.02c10.83-2.7,21.01-5.51,30.94-8.25,27.75-7.65,51.71-14.26,76.47-14.67,51.53-.83,106.25-1.21,177.43-1.21,31.95,0,64.42.07,95.82.15,31.39.07,63.86.14,95.78.14,29.81,0,56.19-.06,80.64-.2h.37c4.48,0,9.16.44,13.69.87,4.31.41,8.77.83,12.78.83,6.74,0,10.88-1.14,13.42-3.68,3.28-3.29,5-10.14,4.97-19.8-.2-56.25-16.2-84.82-47.57-84.91-27.53-.08-55.07-.17-82.61-.26-84.48-.28-171.84-.56-257.74-.56-21.88,0-43.73.02-65.61.06h-.35c-42.84,0-78.49-14.75-100.4-41.52-19.93-24.37-26.95-57.37-19.77-92.93,5.26-26.01,20.34-47.58,43.61-62.39,22.41-14.25,51.93-21.82,85.39-21.88l25.73-.04c119.88-.19,243.85-.39,365.69-2.76,3.42-.07,10.22-2.18,17.71-6.76,7.25-4.43,10.86-8.58,11.59-10.06,2.63-45.91,2.33-92.01,2-140.8-.09-12.98-.17-26.31-.21-39.83l-548.18,27.42-31.57,523.03ZM2046.21,2634.01c.83,4.77,1.67,9.38,2.5,13.91,2.98,16.34,5.79,31.78,6.83,47.21,2.37,35.07,13.19,46.32,44.55,46.32,2.57,0,5.31-.09,8.16-.26,92.86-5.59,187.39-8.08,278.8-10.5,28.58-.75,58.12-1.53,87.17-2.4,16.7-.5,33.63-.59,50.01-.67,27.72-.15,56.39-.3,84.26-2.44,8.48-.65,22.3-10.4,25.07-17.67,9.94-26.16,17.19-52.95,24.21-78.86,1.31-4.86,2.59-9.57,3.86-14.19l-615.42,19.56ZM2586.01,2401.06c49.24,0,82.4,10.42,104.33,32.79,16.54,16.86,26.99,40.17,32.51,73.38,7.53-90.58,15.16-183.92,19.67-275.88-2.43-4.85-17.68-15.89-26.1-16.74-9.43-.95-19.81-1.42-31.73-1.42-11.24,0-22.8.41-33.97.8-11.25.39-22.88.8-34.38.81-82.37.06-170.72.09-286.49.09-49.05,0-244.82-.02-293.96-.02.03,15.22.13,29.98.22,44.34.26,38.98.5,75.81-.63,112.47-.55,17.81,2.1,29.1,8.35,35.54,5.84,6.02,16.31,8.95,32,8.95,1.86,0,3.83-.04,5.85-.12,106.02-4.3,213.84-7.16,318.11-9.93,57.02-1.51,115.99-3.08,173.96-4.86,4.19-.13,8.31-.19,12.25-.19Z"/>
    <path class="cls-6" d="M1876.27,1937.43c-8.94,0-18.23-1.47-27.62-4.36-20.37-6.28-41.84-23.97-57.42-47.31-16.7-25.01-22.9-51.02-17.01-71.38,23.59-81.55,21.5-166.18,19.47-248.03-1.17-47.07-2.37-95.74,1.25-143.64,1.38-18.24-.4-37.14-2.27-57.16-.66-7.02-1.33-14.2-1.89-21.58-2.96-.17-5.85-.36-8.69-.53-11.12-.7-21.62-1.35-31.85-1.36-148.47-.08-283.26-.13-412.08-.13-109.79,0-216.86.03-318.25.09-73.34.04-91.75,18.47-93.79,93.87-.57,20.97-1.05,42.31-1.51,62.95-1.79,79.22-3.64,161.13-10.71,241.4-3.02,34.25-14.04,61.29-32.77,80.34-18.09,18.4-42.7,28.13-71.19,28.14-5.92,0-12.08-.42-18.29-1.26-28.03-3.78-52.94-19.64-70.16-44.67-16.83-24.46-25.07-56-23.2-88.8,6.18-108.39,12.4-218.6,18.41-325.19,3.22-57.08,6.44-114.16,9.67-171.24,2.12-37.46,12.86-68.6,31.06-90.04,18.71-22.05,44.93-33.7,75.81-33.7,3.89,0,7.91.19,11.93.55l2.17.19c12.25,1.08,27.5,2.43,36.1,11.71,18.91,20.41,41.61,24.59,69.87,24.59,5.51,0,11.2-.15,16.71-.29,5.64-.14,11.46-.29,17.23-.29h.22c15.18,0,30.38.01,45.57.01,57.38,0,115.72-.06,172.14-.13,56.43-.06,114.77-.13,172.16-.13,145.49,0,256.38.43,359.54,1.4.58,0,1.17,0,1.74,0,18.58,0,29.94-2.85,35.77-8.96,6.03-6.32,8.16-18.11,7.15-39.4-2.4-50.21-1.86-100.26-1.35-148.67.18-16.63.35-32.5.4-48.18-38.63-.04-76.52-.32-113.26-.59-39.38-.29-76.58-.56-114.04-.56-64.13,0-116.25.86-164.02,2.71-37.51,1.45-75.84,10.5-112.9,19.24-19.85,4.69-40.39,9.53-60.78,13.23-8.22,1.49-16.5,2.25-24.62,2.25-51.48,0-93.72-30.12-105.1-74.97-7.53-29.68-3.59-58.04,11.41-82.02,14.8-23.67,39.32-41.26,70.9-50.87,143.01-43.51,291.82-46.46,423.11-49.05,163.08-3.23,328.89-7.77,489.24-12.16,89.76-2.46,182.59-5,273.89-7.29,18.97-.48,36.46-.71,53.45-.71,24.12,0,46.39.46,68.09,1.42,34.81,1.53,64.3,12.88,85.28,32.8,20.93,19.88,31.82,47.56,30.67,77.94-1.17,30.63-13.62,56.63-36.02,75.17-21.99,18.21-52.06,27.83-86.95,27.83h-.49c-35.5-.09-71.6-.12-106.5-.16-110.9-.1-225.57-.2-338.37-2.26-1-.02-1.98-.03-2.94-.03-16.34,0-26.35,2.59-31.52,8.16-5.29,5.71-7.15,16.42-5.84,33.72,5.36,70.93,7.13,140.25,8.15,198.71.43,24.59,6.27,31.7,26.04,31.7.74,0,1.5-.01,2.28-.04,33.27-1,66.53-2.02,99.8-3.04,141.31-4.34,287.44-8.82,431.22-11.45l22.19-.41c60.45-1.12,122.95-2.28,184.44-2.28s116.16,1.19,166.24,3.62c42.85,2.09,82.09,22.82,107.67,56.89,26.15,34.83,35.23,79.57,24.93,122.75-18.98,79.53-43.23,159.05-66.68,235.94-10.18,33.38-20.7,67.89-30.64,101.9-2.19,7.49-4.17,15.3-6.09,22.85-3.98,15.67-8.09,31.87-14.48,47.24-8.46,20.34-22.22,37.32-39.79,49.1-17.17,11.52-37.19,17.61-57.9,17.61-11.5,0-22.97-1.88-34.1-5.6-24.48-8.18-46.08-26.22-59.28-49.5-13.84-24.42-17.37-51.96-9.92-77.54,18.92-65.03,40.33-130.43,61.03-193.68,9.23-28.19,18.77-57.34,27.96-86.05,1.76-5.49,3.12-11.11,5-18.89.34-1.43.71-2.92,1.09-4.48-3.58-.74-7.08-1.52-10.53-2.29-12.62-2.8-24.55-5.44-35.82-5.44-.67,0-1.33,0-2,.03-62.77,1.78-126.61,4.12-188.34,6.39-79.04,2.91-160.78,5.91-241.23,7.76-31.86.73-65.46,1.07-105.74,1.07-32.75,0-66.03-.23-98.22-.45-29.92-.21-60.85-.42-91.26-.45-6.23,0-12.47,0-19.02,0h-29.65c-.02,34.34-.13,68.56-.24,101.75-.29,89.21-.56,173.48.81,259.2,1.1,68.69-15.68,129.06-49.86,179.44-25.11,37.01-52.94,54.99-85.07,54.99Z"/>
    <path class="cls-3" d="M1563.01,1692.46c-16.84,0-33.57-3.71-49.74-11.03-69.56-31.49-139.37-61.23-207.47-88.39-31.6-12.6-55.6-33.04-69.42-59.09-14.15-26.68-16.35-56.88-6.37-87.33,6.55-19.98,19.6-37.07,37.75-49.43,17.94-12.21,39.23-18.67,61.55-18.67,13.79,0,27.53,2.5,40.81,7.42,72.84,26.99,147.2,58.38,227.33,95.95,46.93,22,69.41,57.73,68.74,109.22-.75,57.77-45.11,101.34-103.18,101.34Z"/>
    <path class="cls-5" d="M2503.97,1697.21c-10.22,0-20.37-1.88-30.17-5.6-69.97-26.51-143.7-62.47-225.41-109.95-21.48-12.48-36.78-32.75-43.07-57.08-6.9-26.67-2.65-55.69,11.64-79.63,19.61-32.84,53.33-52.45,90.2-52.45,14.9,0,29.7,3.18,44,9.44,66.7,29.21,135.66,59.42,199.82,96.78,19.5,11.36,32.38,32.04,44.84,52.04,5.5,8.84,10.7,17.18,16.41,24.74l2.53,3.35-.62,4.15c-4.57,30.57-18.09,59.08-38.08,80.28-20.63,21.87-46.23,33.92-72.09,33.92Z"/>
    <path class="cls-1" d="M2443.69,1950.82c-19.48,0-39.87-5.27-60.59-15.67-19.71-9.89-39.8-19.87-59.23-29.52-29.68-14.75-60.37-29.99-90.43-45.28-40.57-20.62-66.66-56.35-69.81-95.56-2.79-34.8,12.99-67.45,43.31-89.57,11.93-8.71,26-13.39,40.89-18.35,6.83-2.27,13.89-4.62,20.95-7.44l3.81-1.52,3.78,1.59c9.23,3.89,18.38,7.76,27.48,11.62,20.69,8.76,40.23,17.04,60.28,25.32,13.19,5.45,26.77,10.76,39.9,15.9,26.68,10.44,54.27,21.23,80.61,33.94,31.88,15.39,54.74,40.18,64.35,69.8,8.55,26.33,5.8,54.68-7.72,79.84-22.5,41.85-57.15,64.9-97.57,64.9Z"/>
    <path class="cls-2" d="M1411.85,1937.88c-1.52,0-3.06-.02-4.59-.07l-1.01-.03-.98-.23c-89.68-21.07-168.31-79.5-221.41-164.55-11.87-19.02-15.27-40.68-9.83-62.63,4.95-19.94,16.88-39.11,34.5-55.45,20.95-19.41,44.74-29.68,68.8-29.68,17.77,0,34.76,5.56,50.49,16.52,7.52,5.24,15.06,10.59,22.36,15.77,43.48,30.85,84.54,59.99,135.26,77.41,21.38,7.34,37.55,25.03,45.54,49.79,7.11,22.05,7.02,47.91-.26,70.96-15.76,49.92-62.42,82.18-118.88,82.18Z"/>
</svg>