<?xml version="1.0" encoding="UTF-8"?>
<svg id="_レイヤー_2" data-name="レイヤー 2" xmlns="http://www.w3.org/2000/svg" xmlns:xlink="http://www.w3.org/1999/xlink" viewBox="0 0 3840 3840">
    <defs>
        <style>
            .cls-1 {
            fill: #f2f2f2;
            stroke: #fcee21;
            stroke-miterlimit: 10;
            stroke-width: 10px;
            }

            .cls-2 {
            filter: url(#outer-glow-1);
            }
        </style>
        <filter id="outer-glow-1" filterUnits="userSpaceOnUse">
            <feOffset dx="0" dy="0"/>
            <feGaussianBlur result="blur" stdDeviation="30"/>
            <feFlood flood-color="#e7ff00" flood-opacity=".85"/>
            <feComposite in2="blur" operator="in"/>
            <feComposite in="SourceGraphic"/>
        </filter>
    </defs>
    <g class="cls-2">
        <path class="cls-1" d="M1216.37,2853.44c-32.68,9.35-61.38,24.5-89.97,24.3-57.77-.41-91.97-46.75-89.17-120.45,5.13-135.02,14.56-269.87,20.76-404.86,3.62-78.81,5.66-157.75,6.05-236.65.23-47.33,11.71-88.15,58.25-106.93,42.28-17.06,81.75-8.43,114.04,27.05,5.95,6.53,18.55,10.69,27.69,10.08,145.94-9.67,291.67-23.95,437.75-29.67,149.48-5.85,299.28-4.15,448.94-4.64,225.2-.74,450.41-1.36,675.61-.29,90.87.43,126.41,38.48,122.73,127.93-5.48,133.36-12.54,266.67-19.58,399.96-.75,14.18-3.33,29.32-9.34,41.99-34.16,72.13-62.32,148.68-107.17,213.61-30.42,44.04-80.66,74.79-116.57,118.52-14.99,18.25-56.27,19.24-85.9,20.38-163.86,6.3-327.8,10.17-491.71,15.12-6.12.18-12.17,2.81-18.3,4.31,10.96,41.59,75.32,87.56,127.22,94.81,266.99,37.3,535.41,45.68,804.5,40.52,24.07-.46,48.58-1.6,72.03-6.52,107.73-22.6,115.87-35.67,130.59-145.56,5.36-40.01,17.55-84.21,40.99-115.83,128.13-172.85,204.83-366.89,263.08-572.53,65.62-231.65,68.58-466.9,59.75-703.06-1.8-48.12-38.09-97.23-65.3-141.7-97.2-158.82-202.23-313.03-295.08-474.29-103.54-179.83-217.29-351.33-370.19-492.11-159.02-146.42-349.92-207.31-567.11-200.47-141.02,4.44-282.61-12.95-423.88-11.94-134.4.96-272.63-26.93-402.36,19.58-85,30.48-162.6,82.34-242.17,127.02-61.57,34.58-121.53,72.13-181.36,109.7-137.53,86.34-283.57,162.34-408.93,263.83-99.81,80.81-171.25,194.48-227.73,314.24-71.39,151.37-101.75,310.02-107.22,476.25-5.4,163.94-20.51,327.54-26.98,491.47-4.25,107.8-1.35,215.92-.53,323.89.76,100.52,52.94,182.77,106.51,260.05,68.59,98.94,143.02,195.2,225.18,283.02,103.81,110.96,216.87,213.42,328.19,317.13,41.06,38.26,88.57,69.59,133.05,104.18,73.8,57.39,165.04,68.65,250.3,96.26,36.12,11.7,68.71,33.88,104.37,47.46,55.04,20.96,111.94,37.04,166.92,58.11,59.62,22.85,117.19,51.18,177.15,73,35.29,12.84,73.11,21.94,110.46,25.38,181.25,16.69,363.96,33.5,538.7-34.1,87.69-33.93,170.03-81.92,254-125.06,13.47-6.92,22.82-21.84,34.13-33.01,33.28-32.86,82.22-39.51,123.54-16.83,38.2,20.97,57.7,62.59,44.68,106.66-4.79,16.2-18.28,34.22-32.86,42.47-224.18,126.93-464.63,204.97-721.25,227.93-100.82,9.02-202.66,6.81-304.04,9.38-57.65,1.47-108.13-17.26-160.18-43.18-59.46-29.61-127.01-42.67-190.29-65.04-43.53-15.39-85.75-34.5-128.62-51.78-44.31-17.86-87.38-40.99-133.34-52.17-106.79-25.97-203.85-71.16-288.63-139.6-74.91-60.47-146.58-125.22-216.88-191.08-88.98-83.37-181.59-164.17-261.09-256.07-157.31-181.83-305.06-372.19-343.8-619.89-11.84-75.72-14.16-153.67-13.15-230.5,2-151.05,6.03-302.25,15.55-452.98,8.42-133.23,9.01-270.34,43.27-397.6,34.55-128.35,94.49-253.99,164.86-367.45,79.2-127.69,178.63-243.71,276.46-358.68,85.65-100.66,204.93-159.44,316.82-226.13,102.12-60.87,203.37-123.33,306.98-181.56,148.18-83.29,310.32-124.55,478.47-127.71,193.02-3.62,387.43-4.75,579.07,14.54,122.66,12.35,244.42,55.53,361.2,99.27,185.69,69.56,359.85,165.52,504.88,302.11,70.27,66.18,126.56,149.39,179.71,231.06,68.4,105.09,124.87,217.87,190.99,324.54,61.71,99.56,128.12,196.29,194.66,292.76,67.76,98.25,85.73,211.95,94.39,325.12,12.35,161.37,6.4,322.05-22.85,483.66-40.46,223.56-107.35,435.35-212.77,636.28-32.72,62.37-57.52,126.94-108.12,180.23-23.28,24.52-21.94,71.83-33.43,108.28-38.39,121.78-114.61,211.21-242.23,234.3-103.56,18.74-210.8,24.88-316.25,23.56-155.55-1.95-311.06-14.04-466.39-24.77-67.14-4.64-134.8-11.93-200.43-26.28-145.12-31.72-248.73-114.27-299.09-258.55-5.02-14.38-27.84-31.77-42.71-32.06-134.85-2.63-269.77-1.79-404.67-1.89-24.18-.02-48.54-1.48-72.52.79-110.18,10.39-128.44-25.08-152.33-90.63ZM1260.59,2232.45c-10.96,181.51-22.02,364.74-32.93,545.42,47.91-10.88,83.03-25.19,118.36-25.77,149.82-2.43,299.71-.3,449.56-1.11,22.43-.12,55.32,12.98,55.17-31.83-.21-61.38-19.26-94.76-57.54-94.87-135.33-.4-270.67-1.01-406-.76-78.09.15-125.12-51.14-110.7-122.47,9.62-47.6,55.12-76.14,119.21-76.25,130.54-.22,261.09-.26,391.59-2.8,13.79-.27,38.5-16.05,39.06-25.73,3.58-61.99,1.83-124.29,1.83-192.23-191.7,9.59-375.81,18.8-567.61,28.39ZM2025.89,2204.86c0,60.74,1.23,113.66-.4,166.5-1.26,40.95,13.57,56.41,56.6,54.67,163.92-6.65,327.98-9.74,491.98-14.78,99.33-3.05,136.85,30.33,142.75,133.83,6.59-9.18,14.16-14.89,14.68-21.18,8.12-97.59,16.28-195.2,21.06-292.97.42-8.6-22.1-24.96-35.13-26.27-33.35-3.37-67.35.12-101.09.14-192.75.14-385.5.07-590.45.07ZM2034.44,2624.37c4.43,27.58,9.63,49.37,11.12,71.42,2.74,40.58,17.82,58.11,63.29,55.37,121.71-7.32,243.75-9.26,365.67-12.88,44.92-1.33,90.01.29,134.74-3.14,12.13-.93,29.45-13.04,33.65-24.09,13.83-36.42,22.74-74.7,32.03-107.03-211.76,6.73-422.33,13.42-640.5,20.36Z"/>
        <path class="cls-1" d="M1800.14,1334.48c-18.5-.93-34.2-2.39-49.9-2.39-243.45-.14-486.89-.18-730.34-.03-79.28.05-101.62,23.65-103.78,103.6-2.74,101.31-3.3,202.91-12.19,303.74-6.38,72.44-51.03,106.27-110.95,98.18-52.13-7.03-88.32-59.77-84.71-122.99,9.43-165.47,18.72-330.95,28.08-496.43,4.33-76.51,44.86-119.55,107.91-113.79,10.98,1,25.45,1.84,31.85,8.74,31.71,34.22,72.28,27.19,111.37,27.22,249.78.16,499.57-1.18,749.32,1.16,47.34.44,56.79-16.08,54.74-58.84-3.37-70.46-.91-141.19-.91-206.37-142.43,0-272.24-3.46-401.72,1.56-58.68,2.27-116.6,22.02-175.08,32.62-56.38,10.22-106.23-18.01-118.24-65.34-13.96-55,15.96-102.74,75.53-120.86,137.2-41.75,278.5-45.82,420.4-48.62,254.42-5.03,508.79-13.09,763.19-19.45,40.26-1.01,80.63-1.06,120.85.71,66.22,2.92,108.55,43.78,106.4,100.37-2.15,56.56-46.8,93.56-113.45,93.38-148.24-.39-296.51.29-444.71-2.41-41.15-.75-53.46,12.9-50.45,52.6,4.98,65.88,6.97,132.05,8.12,198.13.48,27.7,8.45,42.39,38.62,41.49,176.95-5.31,353.9-11.25,530.9-14.49,124.06-2.27,248.41-5.11,372.21.92,84.78,4.13,143.25,83.96,123.36,167.33-27.14,113.71-64.36,225.01-97.2,337.36-6.73,23.04-11.04,47.04-20.2,69.05-20.27,48.75-71.41,71.49-119.38,55.47-45.56-15.22-76.85-66.38-62.77-114.77,27.3-93.84,59.11-186.36,88.91-279.47,2.88-9.01,4.76-18.34,8.82-34.26-21.86-3.73-41.48-10.41-60.89-9.86-143.19,4.06-286.31,10.86-429.51,14.15-98.28,2.26-196.65.26-294.99.17-17.3-.02-34.6,0-58.67,0,0,127.32-1.38,249.23.57,371.1,1.01,63.44-13.15,122.1-48.14,173.67-22.85,33.67-54.8,61.08-101.47,46.69-37.48-11.56-78.73-68.47-67.77-106.35,37.65-130.12,11.18-262.71,21.08-393.7,2.13-28.2-2.85-56.93-4.76-88.99Z"/>
        <path class="cls-1" d="M1656.2,1590.99c-.92,71.03-71.91,111.61-138.8,81.34-68.61-31.05-137.94-60.67-207.89-88.57-59.4-23.69-88.71-76.93-70-134.02,15.47-47.2,72.12-74.8,127.13-54.41,76.81,28.46,152.38,60.84,226.56,95.63,46.14,21.63,63.57,55.63,62.99,100.04Z"/>
        <path class="cls-1" d="M2604.25,1581.53c-10.4,69.62-69.53,122.46-126.91,100.73-77.42-29.33-152.21-67.57-223.92-109.24-44.33-25.76-51.9-82.69-27.87-122.93,24.86-41.63,74.4-59.65,121.61-38.98,67.46,29.55,135.34,59.31,198.8,96.26,25.26,14.71,39.2,48.86,58.3,74.17Z"/>
        <path class="cls-1" d="M2272.49,1658.72c29.77,12.55,58.72,24.94,87.83,36.97,40,16.53,81.07,30.82,119.98,49.6,57.76,27.89,78.86,86.25,52.17,135.9-31.35,58.33-85.16,74.98-144.87,45.02-49.83-25-99.91-49.51-149.61-74.78-74.04-37.64-87.3-122.78-25.13-168.14,15.85-11.57,37.19-15.62,59.65-24.57Z"/>
        <path class="cls-1" d="M1407.56,1927.82c-85.51-20.09-162.45-75.59-215.21-160.11-21.97-35.18-8.64-76.13,22.99-105.44,31.97-29.63,71.88-36.6,106.77-12.29,51.18,35.66,99.09,73.48,160.09,94.43,39.41,13.54,52.31,66.11,38.99,108.28-14.01,44.38-56.83,76.84-113.64,75.12Z"/>
    </g>
</svg>